<svg width="56" height="73" viewBox="0 0 56 73" fill="none" xmlns="http://www.w3.org/2000/svg">
<path d="M0.321023 73V0.272725H29.0142C34.5303 0.272725 39.2296 1.32623 43.1122 3.43324C46.9948 5.51657 49.9541 8.41666 51.9901 12.1335C54.0497 15.8267 55.0795 20.0881 55.0795 24.9176C55.0795 29.7472 54.0379 34.0085 51.9545 37.7017C49.8712 41.3949 46.8527 44.2713 42.8991 46.331C38.9692 48.3906 34.2107 49.4205 28.6236 49.4205H10.3352V37.098H26.1378C29.0971 37.098 31.5355 36.589 33.4531 35.571C35.3944 34.5294 36.8385 33.0971 37.7855 31.2741C38.7562 29.4276 39.2415 27.3087 39.2415 24.9176C39.2415 22.5028 38.7562 20.3958 37.7855 18.5966C36.8385 16.7737 35.3944 15.3651 33.4531 14.3707C31.5118 13.3527 29.0497 12.8438 26.0668 12.8438H15.6974V73H0.321023Z" fill="black"/>
</svg>
